<?xml version="1.0" standalone="no"?>
<!DOCTYPE svg PUBLIC "-//W3C//DTD SVG 20010904//EN"
 "http://www.w3.org/TR/2001/REC-SVG-20010904/DTD/svg10.dtd">
<svg version="1.0" xmlns="http://www.w3.org/2000/svg"
 width="450.000000pt" height="389.000000pt" viewBox="0 0 450.000000 389.000000"
 preserveAspectRatio="xMidYMid meet">

<g transform="translate(0.000000,389.000000) scale(0.100000,-0.100000)"
fill="#000000" stroke="none">
<path d="M2279 3153 c-5 -37 -2 -200 3 -197 5 3 8 18 8 33 0 16 7 34 15 41 10
8 13 26 11 56 -2 24 1 41 5 38 5 -3 9 0 9 5 0 6 -7 11 -15 11 -8 0 -15 5 -15
10 0 12 -19 14 -21 3z"/>
<path d="M2305 3010 c-9 -30 4 -45 21 -23 7 10 14 24 14 31 0 20 -28 14 -35
-8z"/>
<path d="M2278 2923 c5 -10 7 -23 5 -29 -2 -6 7 -14 20 -16 15 -3 24 0 24 8 0
7 -6 10 -14 7 -11 -5 -18 14 -14 40 0 4 -6 7 -14 7 -12 0 -13 -5 -7 -17z"/>
<path d="M2347 2859 c7 -7 15 -10 18 -7 3 3 -2 9 -12 12 -14 6 -15 5 -6 -5z"/>
<path d="M2178 2853 c6 -2 18 -2 25 0 6 3 1 5 -13 5 -14 0 -19 -2 -12 -5z"/>
<path d="M2007 2815 c-8 -8 -18 -11 -22 -7 -5 4 -5 1 -1 -6 6 -11 12 -10 27 4
10 9 19 19 19 21 0 7 -9 2 -23 -12z"/>
<path d="M2058 2813 c7 -3 16 -2 19 1 4 3 -2 6 -13 5 -11 0 -14 -3 -6 -6z"/>
<path d="M2618 2807 c12 -7 19 -17 15 -22 -4 -4 -3 -5 3 -2 6 3 34 -5 63 -19
29 -13 72 -25 94 -26 30 -1 22 -3 -28 -8 l-70 -6 100 -3 c55 -2 143 -5 196 -7
75 -3 100 0 115 12 18 14 17 15 -16 9 -33 -6 -34 -6 -11 7 35 19 38 38 7 38
-14 0 -26 -4 -26 -10 0 -5 5 -10 12 -10 6 0 9 -2 7 -5 -6 -5 -224 20 -304 35
-27 5 -57 9 -65 9 -13 1 -13 0 0 -9 13 -9 13 -10 0 -10 -8 0 -26 3 -40 7 l-25
7 25 8 c24 7 24 8 -3 4 -15 -2 -30 1 -33 5 -3 5 -13 9 -22 9 -13 -1 -12 -4 6
-13z"/>
<path d="M2588 2793 c7 -3 16 -2 19 1 4 3 -2 6 -13 5 -11 0 -14 -3 -6 -6z"/>
<path d="M1457 2783 c-4 -3 -7 -11 -7 -17 0 -6 5 -5 12 2 6 6 9 14 7 17 -3 3
-9 2 -12 -2z"/>
<path d="M1510 2780 c-12 -8 -9 -10 13 -10 16 0 26 4 22 10 -8 12 -16 12 -35
0z"/>
<path d="M1720 2773 c-58 -7 -133 -15 -167 -19 -35 -4 -68 -13 -74 -20 -10
-12 23 -14 202 -12 141 1 190 4 144 8 -53 5 -60 7 -30 9 22 2 51 7 65 11 23 7
23 8 -10 10 l-35 2 38 8 c20 4 40 9 43 12 8 8 -60 5 -176 -9z"/>
<path d="M1938 2783 c7 -3 16 -2 19 1 4 3 -2 6 -13 5 -11 0 -14 -3 -6 -6z"/>
<path d="M3020 2776 c0 -2 7 -6 15 -10 8 -3 15 -1 15 4 0 6 -7 10 -15 10 -8 0
-15 -2 -15 -4z"/>
<path d="M2628 2763 c7 -3 16 -2 19 1 4 3 -2 6 -13 5 -11 0 -14 -3 -6 -6z"/>
<path d="M1928 2723 c7 -3 16 -2 19 1 4 3 -2 6 -13 5 -11 0 -14 -3 -6 -6z"/>
<path d="M2321 2693 c-17 -45 -21 -87 -9 -94 9 -6 8 -67 -1 -246 -16 -303 -22
-895 -11 -1035 5 -59 15 -121 23 -138 18 -34 15 -37 -42 -46 -39 -6 -41 -7
-19 -18 32 -16 35 -64 7 -118 -24 -48 -131 -158 -154 -158 -8 0 -15 -7 -15
-15 0 -12 10 -13 48 -9 26 4 67 13 91 21 32 10 52 11 70 4 14 -5 78 -22 141
-37 220 -51 214 -53 -175 -53 -291 1 -345 3 -321 13 19 9 24 15 14 18 -17 7
-283 0 -317 -8 l-24 -5 24 -13 c17 -8 83 -13 207 -14 100 -2 248 -7 328 -12
93 -6 218 -5 347 1 111 6 237 11 280 11 42 0 80 5 83 9 3 5 18 9 35 9 16 0 29
5 29 13 0 8 -23 13 -78 14 -82 2 -194 30 -317 80 -54 22 -83 42 -127 87 -32
33 -55 62 -53 64 2 3 -3 18 -11 34 -8 16 -14 34 -12 40 3 7 13 -6 24 -27 25
-47 44 -56 44 -21 l0 26 273 1 c149 0 281 4 292 9 12 5 -105 9 -289 9 -269 0
-311 2 -318 15 -5 9 -16 16 -25 16 -13 0 -13 3 -3 15 10 12 10 15 0 15 -9 0
-11 20 -6 78 11 153 18 391 12 416 -3 14 -13 26 -20 26 -21 0 -24 60 -20 367
2 238 5 277 20 302 14 23 15 33 6 44 -8 9 -12 63 -13 162 0 130 2 149 18 161
17 13 17 13 -3 14 -14 0 -25 -9 -33 -27z m-408 -1940 c-7 -2 -19 -2 -25 0 -7
3 -2 5 12 5 14 0 19 -2 13 -5z"/>
<path d="M1430 2526 c-53 -14 -108 -46 -136 -78 -19 -23 -19 -23 1 -7 37 29
117 69 139 69 12 0 26 4 32 9 5 6 32 12 59 14 l50 3 -50 2 c-27 0 -70 -5 -95
-12z"/>
<path d="M1628 2513 c7 -3 16 -2 19 1 4 3 -2 6 -13 5 -11 0 -14 -3 -6 -6z"/>
<path d="M1945 2339 c2 -88 6 -163 9 -167 4 -3 11 -1 17 5 7 7 7 22 0 49 -6
22 -11 92 -11 157 0 66 -4 117 -9 117 -6 0 -8 -65 -6 -161z"/>
<path d="M1246 2385 c-3 -9 0 -15 9 -15 8 0 15 7 15 15 0 8 -4 15 -9 15 -5 0
-11 -7 -15 -15z"/>
<path d="M2450 2351 c24 -14 90 -23 90 -13 0 10 -48 22 -84 22 -17 -1 -18 -2
-6 -9z"/>
<path d="M2730 2331 c-5 -11 -10 -85 -10 -167 0 -119 -3 -151 -15 -164 -35
-39 -80 -395 -56 -444 5 -12 12 -28 14 -36 4 -11 7 -10 13 7 5 12 14 22 19 22
6 0 13 10 17 23 3 13 7 -47 7 -132 2 -231 19 -223 24 10 3 107 5 200 5 205 0
6 -2 154 -5 331 -3 292 -2 322 13 335 12 10 45 14 105 15 49 0 92 3 95 7 4 4
-43 7 -104 7 -100 0 -112 -2 -122 -19z"/>
<path d="M3000 2330 c8 -5 24 -10 34 -10 26 0 18 6 -19 14 -22 5 -26 4 -15 -4z"/>
<path d="M1226 2307 c-5 -15 -5 -44 0 -65 l8 -37 4 33 c2 17 2 47 0 65 l-4 32
-8 -28z"/>
<path d="M1250 2159 c7 -11 14 -18 17 -15 8 8 -5 36 -17 36 -7 0 -7 -6 0 -21z"/>
<path d="M3500 2043 c0 -5 5 -15 10 -23 8 -12 10 -11 10 8 0 12 -4 22 -10 22
-5 0 -10 -3 -10 -7z"/>
<path d="M3540 1903 c0 -18 5 -33 10 -33 13 0 13 30 0 50 -7 11 -10 7 -10 -17z"/>
<path d="M3386 1895 c-3 -8 -1 -15 4 -15 6 0 10 7 10 15 0 8 -2 15 -4 15 -2 0
-6 -7 -10 -15z"/>
<path d="M3520 1751 c-8 -26 -21 -46 -32 -49 -19 -5 -31 -40 -47 -137 -28
-178 -128 -343 -239 -396 -26 -12 -55 -29 -65 -38 -10 -8 -30 -17 -45 -19 -15
-2 -31 -8 -37 -14 -7 -7 -1 -9 20 -5 104 19 188 54 181 74 -3 7 1 13 9 13 28
0 106 44 101 57 -3 7 -2 12 2 12 23 -4 34 3 28 17 -4 10 0 18 13 21 11 3 17
11 15 18 -3 7 4 15 15 18 13 3 21 13 21 26 0 13 6 21 16 21 12 0 15 7 12 31
-4 22 0 33 14 40 13 7 18 21 18 52 0 30 6 48 20 60 23 19 23 21 6 147 l-13 95
-13 -44z m-315 -601 c-3 -5 -12 -10 -18 -10 -7 0 -6 4 3 10 19 12 23 12 15 0z"/>
<path d="M3410 1702 c0 -53 4 -81 10 -77 13 8 13 125 0 145 -7 10 -10 -11 -10
-68z"/>
<path d="M1970 1646 c0 -8 5 -18 10 -21 6 -3 10 1 10 9 0 8 -4 18 -10 21 -5 3
-10 -1 -10 -9z"/>
<path d="M3266 1653 c-4 -5 -103 -7 -219 -5 -174 3 -210 1 -199 -9 7 -8 43
-15 85 -17 39 -2 76 -8 82 -13 12 -12 122 -11 130 1 3 6 25 10 49 10 48 0 106
17 106 31 0 11 -24 12 -34 2z"/>
<path d="M3390 1595 c0 -8 5 -15 10 -15 6 0 10 7 10 15 0 8 -4 15 -10 15 -5 0
-10 -7 -10 -15z"/>
<path d="M2600 1513 c0 -48 3 -63 10 -53 13 20 13 107 0 115 -6 4 -10 -19 -10
-62z"/>
<path d="M2000 1546 c0 -14 5 -28 10 -31 6 -3 10 5 10 19 0 14 -4 28 -10 31
-6 3 -10 -5 -10 -19z"/>
<path d="M1675 1549 c-16 -5 -78 -7 -137 -4 -97 4 -106 3 -104 -13 3 -15 16
-17 112 -16 111 1 175 11 175 29 1 13 -11 15 -46 4z"/>
<path d="M1339 1537 c6 -6 25 -5 48 1 l38 10 -47 -1 c-28 -1 -44 -5 -39 -10z"/>
<path d="M1070 1419 c0 -11 4 -18 10 -14 5 3 7 12 3 20 -7 21 -13 19 -13 -6z"/>
<path d="M1092 1365 c8 -17 15 -22 21 -16 7 7 6 15 -3 26 -20 24 -31 18 -18
-10z"/>
<path d="M2006 1367 c-5 -15 -6 -31 -2 -34 11 -11 18 5 14 34 l-4 28 -8 -28z"/>
<path d="M1965 1270 c-4 -11 -28 -43 -55 -70 -27 -28 -42 -50 -34 -50 8 0 14
5 14 10 0 6 8 14 17 17 21 8 48 35 56 56 3 9 11 17 17 17 5 0 10 9 10 20 0 26
-17 26 -25 0z"/>
<path d="M1065 1140 c-4 -6 12 -10 42 -9 39 1 43 3 23 9 -36 11 -58 11 -65 0z"/>
<path d="M1733 1098 c-18 -6 -33 -15 -33 -19 0 -5 2 -9 5 -9 10 0 65 30 65 35
0 3 -1 5 -2 4 -2 -1 -18 -6 -35 -11z"/>
<path d="M1615 1070 l-40 -7 45 -1 c25 -1 52 3 60 8 12 8 11 9 -5 8 -11 0 -38
-4 -60 -8z"/>
<path d="M1403 1063 c15 -2 37 -2 50 0 12 2 0 4 -28 4 -27 0 -38 -2 -22 -4z"/>
<path d="M1498 1053 c12 -2 32 -2 45 0 12 2 2 4 -23 4 -25 0 -35 -2 -22 -4z"/>
</g>
</svg>
