<?xml version="1.0" standalone="no"?>
<!DOCTYPE svg PUBLIC "-//W3C//DTD SVG 20010904//EN"
 "http://www.w3.org/TR/2001/REC-SVG-20010904/DTD/svg10.dtd">
<svg version="1.0" xmlns="http://www.w3.org/2000/svg"
 width="450.000000pt" height="389.000000pt" viewBox="0 0 450.000000 389.000000"
 preserveAspectRatio="xMidYMid meet">

<g transform="translate(0.000000,389.000000) scale(0.100000,-0.100000)"
fill="#000000" stroke="none">
<path d="M0 1945 l0 -1945 2250 0 2250 0 0 1945 0 1945 -2250 0 -2250 0 0
-1945z m2282 1223 c-11 -36 -10 -163 1 -174 4 -4 7 0 7 8 0 9 7 21 15 28 9 7
14 19 11 27 -3 8 -1 11 4 8 6 -3 10 2 11 12 0 10 3 13 6 6 2 -7 -5 -28 -16
-47 -43 -69 -14 -113 94 -140 81 -21 592 -126 610 -126 7 0 15 14 19 30 4 23
11 30 29 30 25 0 47 -17 47 -37 0 -8 -14 -13 -37 -13 -36 -1 -37 -2 -19 -15
17 -13 18 -15 3 -15 -9 0 -17 3 -17 8 0 4 -35 8 -78 9 -42 0 -130 10 -196 22
-65 11 -121 20 -125 19 -3 -1 -14 2 -23 6 -9 4 -25 6 -35 3 -12 -3 -8 -5 10
-6 15 0 30 -7 33 -15 3 -8 19 -16 35 -20 17 -3 28 -10 25 -15 -4 -5 22 -14 56
-19 55 -8 43 -10 -103 -11 -91 0 -200 -4 -242 -7 -70 -6 -77 -9 -86 -33 -18
-44 -23 -91 -10 -91 9 0 10 -35 6 -132 -17 -338 -22 -558 -21 -863 1 -269 5
-342 18 -393 9 -35 16 -65 16 -67 0 -2 -21 -7 -46 -11 -42 -6 -44 -7 -22 -18
32 -16 35 -63 7 -118 -20 -40 -130 -158 -147 -158 -5 0 -17 -7 -28 -16 -10 -8
-14 -13 -7 -10 6 4 13 0 16 -6 3 -11 9 -11 28 0 13 7 38 14 54 16 17 2 46 9
65 15 23 7 44 8 65 1 83 -27 166 -49 211 -56 27 -4 62 -13 79 -20 25 -11 -23
-13 -323 -14 -233 0 -351 3 -347 10 3 6 16 10 28 10 16 0 18 3 8 9 -7 5 -43 7
-80 5 -234 -11 -316 -6 -280 17 8 5 28 9 45 9 58 0 229 50 311 90 89 44 160
106 191 167 12 22 28 45 37 53 11 9 12 15 5 20 -9 5 -9 37 0 121 6 63 11 123
12 134 1 11 5 22 10 25 13 10 24 207 21 400 -2 102 -4 341 -5 532 -2 218 -7
351 -13 357 -6 6 -111 14 -245 18 -129 4 -209 9 -177 11 53 3 73 14 45 25 -7
3 -4 6 7 6 11 1 26 5 33 9 30 20 -353 -18 -390 -38 -30 -17 -65 8 -36 26 8 5
6 11 -7 20 -15 11 -16 16 -5 29 16 20 49 16 64 -8 8 -14 8 -20 -4 -27 -12 -8
-10 -10 10 -10 53 0 636 123 679 143 14 7 34 27 44 44 l19 33 -26 31 c-38 45
-36 62 21 152 28 45 39 43 25 -5z m442 -387 c3 -4 -6 -6 -19 -3 -14 2 -25 6
-25 8 0 8 39 4 44 -5z m-947 -247 c84 -19 118 -22 132 -14 11 5 23 10 28 10 4
0 7 -62 6 -137 -1 -76 -2 -158 -3 -182 0 -52 -8 -49 -21 8 -14 64 -58 148
-105 200 -72 80 -216 130 -334 117 -258 -30 -347 -319 -147 -477 28 -23 147
-89 262 -145 116 -57 232 -121 260 -141 108 -83 150 -175 150 -328 0 -79 -4
-97 -28 -148 -76 -154 -234 -232 -467 -230 -123 1 -218 18 -340 59 -46 16 -86
24 -105 21 l-32 -5 0 189 c0 182 8 236 21 145 15 -95 114 -262 183 -308 81
-53 149 -71 273 -72 100 -1 122 2 165 22 91 42 144 110 172 222 16 63 16 61
10 116 -3 23 -12 50 -20 60 -9 11 -30 37 -47 58 -42 54 -110 98 -277 178 -239
115 -319 169 -383 263 -31 45 -65 158 -50 163 6 2 6 11 -1 24 -23 43 16 176
69 231 39 41 105 85 154 103 109 39 291 38 475 -2z m1212 -165 c305 -28 469
-150 532 -397 10 -41 19 -95 19 -120 0 -57 -30 -141 -52 -148 -18 -5 -32 -46
-44 -124 -23 -163 -104 -317 -205 -390 -21 -15 -36 -30 -33 -33 3 -3 0 -8 -7
-13 -8 -5 -10 -3 -4 6 10 16 -33 4 -55 -16 -39 -34 -138 -44 -445 -44 -197 0
-295 4 -285 10 8 5 30 10 49 10 25 0 99 31 101 43 1 1 5 45 10 97 4 52 16 110
25 128 25 50 22 242 -5 294 -19 36 -20 58 -20 337 0 346 2 337 -88 348 -29 3
-55 10 -58 14 -7 12 428 11 565 -2z m-1300 -814 c-44 -16 -366 -12 -383 5 -7
7 55 10 205 9 190 0 210 -2 178 -14z m528 -97 c-3 -8 -6 -5 -6 6 -1 11 2 17 5
13 3 -3 4 -12 1 -19z m140 -275 c-3 -10 -5 -4 -5 12 0 17 2 24 5 18 2 -7 2
-21 0 -30z m23 -110 c0 -9 28 -43 63 -77 98 -97 264 -166 435 -183 34 -3 65
-10 68 -15 25 -40 -230 0 -351 56 -16 8 -47 21 -69 30 -42 17 -137 111 -142
140 -1 6 -10 29 -19 51 -15 35 -15 38 -1 26 9 -7 16 -20 16 -28z m-467 -320
c-7 -2 -19 -2 -25 0 -7 3 -2 5 12 5 14 0 19 -2 13 -5z"/>
<path d="M2277 2973 c-4 -3 -7 -11 -7 -17 0 -6 5 -5 12 2 6 6 9 14 7 17 -3 3
-9 2 -12 -2z"/>
<path d="M2278 2923 c5 -10 7 -24 5 -30 -3 -8 4 -13 19 -13 13 0 18 3 12 8 -6
4 -14 17 -18 30 -4 12 -12 22 -17 22 -6 0 -6 -7 -1 -17z"/>
<path d="M2220 2876 c-6 -8 -21 -17 -33 -19 -21 -4 -21 -4 -1 -6 11 0 29 8 39
19 10 11 16 20 13 20 -3 0 -11 -6 -18 -14z"/>
<path d="M2336 2867 c-16 -12 -16 -13 3 -13 11 0 18 3 15 7 -2 4 2 10 8 12 7
3 8 6 2 6 -5 1 -18 -5 -28 -12z"/>
<path d="M2408 2853 c6 -2 18 -2 25 0 6 3 1 5 -13 5 -14 0 -19 -2 -12 -5z"/>
<path d="M2528 2823 c7 -3 16 -2 19 1 4 3 -2 6 -13 5 -11 0 -14 -3 -6 -6z"/>
<path d="M1990 2810 c-13 -8 -13 -10 2 -10 9 0 20 5 23 10 8 13 -5 13 -25 0z"/>
<path d="M2730 2331 c-5 -11 -10 -85 -10 -167 0 -122 -3 -151 -16 -165 -10
-11 -20 -50 -26 -96 -5 -43 -16 -91 -24 -106 -17 -35 -20 -232 -3 -242 6 -4 8
-13 5 -21 -3 -7 -2 -16 3 -18 10 -6 44 33 52 59 3 11 8 -85 11 -213 4 -186 8
-236 19 -243 21 -13 166 -10 240 5 132 28 231 100 297 213 34 57 82 183 82
213 0 13 5 17 14 14 10 -4 22 8 35 35 23 44 26 103 10 186 -5 28 -12 68 -15
90 -4 22 -10 45 -14 50 -4 6 -10 24 -14 40 -11 49 -28 85 -37 79 -5 -3 -9 1
-9 8 0 8 -8 30 -19 50 -10 21 -14 39 -9 40 6 2 2 10 -8 18 -14 12 -16 12 -9 1
5 -9 4 -12 -2 -8 -5 3 -18 24 -29 46 -10 23 -24 41 -29 41 -6 0 -17 9 -25 20
-8 11 -19 20 -25 20 -6 0 -31 9 -54 21 -65 31 -165 49 -278 49 -91 0 -103 -2
-113 -19z m545 -673 c-23 -14 -404 -12 -439 2 -12 5 76 9 219 9 189 0 236 -2
220 -11z"/>
</g>
</svg>
